<?xml version="1.0" encoding="UTF-8" standalone="no"?>
<!-- Created with Inkscape (http://www.inkscape.org/) -->

<svg
   width="720"
   height="480"
   viewBox="0 0 190.5 127"
   version="1.1"
   id="svg5"
   xml:space="preserve"
   inkscape:version="1.2.2 (b0a8486, 2022-12-01)"
   sodipodi:docname="background.svg"
   xmlns:inkscape="http://www.inkscape.org/namespaces/inkscape"
   xmlns:sodipodi="http://sodipodi.sourceforge.net/DTD/sodipodi-0.dtd"
   xmlns="http://www.w3.org/2000/svg"
   xmlns:svg="http://www.w3.org/2000/svg"
   xmlns:rdf="http://www.w3.org/1999/02/22-rdf-syntax-ns#"
   xmlns:cc="http://creativecommons.org/ns#"
   xmlns:dc="http://purl.org/dc/elements/1.1/"><title
     id="title134">YouBird - Youtube video downloader</title><sodipodi:namedview
     id="namedview7"
     pagecolor="#ffffff"
     bordercolor="#000000"
     borderopacity="0.25"
     inkscape:showpageshadow="2"
     inkscape:pageopacity="0.0"
     inkscape:pagecheckerboard="0"
     inkscape:deskcolor="#d1d1d1"
     inkscape:document-units="px"
     showgrid="false"
     inkscape:zoom="0.5"
     inkscape:cx="181"
     inkscape:cy="226"
     inkscape:window-width="1366"
     inkscape:window-height="700"
     inkscape:window-x="0"
     inkscape:window-y="0"
     inkscape:window-maximized="1"
     inkscape:current-layer="layer1" /><defs
     id="defs2" /><g
     inkscape:label="Layer 1"
     inkscape:groupmode="layer"
     id="layer1"><rect
       style="fill:#d52e2e;stroke-width:29.5867;stroke-linecap:round;stroke-linejoin:round;paint-order:stroke fill markers;fill-opacity:1"
       id="rect238"
       width="190.5"
       height="127"
       x="7.1054274e-15"
       y="0"
       rx="0"
       ry="0" /><g
       id="g2684"
       transform="matrix(0.34971146,-0.44874709,0.4320124,0.33667,156.91915,114.28718)"
       inkscape:spray-origin="#Youtube_1_"><path
         d="m 30.21,10.03 c 0,0 -0.284,-2.058 -1.153,-2.964 C 27.954,5.877 26.718,5.871 26.152,5.802 22.093,5.5 16.006,5.5 16.006,5.5 h -0.012 c 0,0 -6.087,0 -10.146,0.302 C 5.281,5.871 4.045,5.876 2.942,7.066 2.072,7.972 1.79,10.03 1.79,10.03 c 0,0 -0.29,2.416 -0.29,4.832 v 2.266 c 0,2.416 0.29,4.832 0.29,4.832 0,0 0.283,2.058 1.152,2.963 1.104,1.189 2.553,1.153 3.198,1.277 2.32,0.229 9.86,0.3 9.86,0.3 0,0 6.093,-0.009 10.152,-0.312 0.566,-0.07 1.803,-0.076 2.905,-1.266 0.87,-0.905 1.153,-2.963 1.153,-2.963 0,0 0.29,-2.416 0.29,-4.832 v -2.266 c 0,-2.415 -0.29,-4.831 -0.29,-4.831 z"
         fill="#ffffff"
         id="path2674" /><path
         d="M 29.755,8.282 C 28.736,7.385 27.667,7.365 27.151,7.302 23.093,7 17.006,7 17.006,7 h -0.012 c 0,0 -6.087,0 -10.146,0.302 C 6.281,7.371 5.045,7.376 3.942,8.566 3.072,9.472 2.79,11.53 2.79,11.53 c 0,0 -0.29,2.416 -0.29,4.832 v 2.266 c 0,2.416 0.29,4.832 0.29,4.832 0,0 0.124,0.875 0.449,1.734 1.054,0.902 2.311,0.892 2.901,1.006 2.32,0.229 9.86,0.3 9.86,0.3 0,0 6.093,-0.009 10.152,-0.312 0.566,-0.07 1.803,-0.076 2.905,-1.266 0.87,-0.905 1.153,-2.963 1.153,-2.963 0,0 0.29,-2.416 0.29,-4.832 v -2.266 c 0,-2.416 -0.29,-4.833 -0.29,-4.833 0,0 -0.126,-0.881 -0.455,-1.746 z"
         fill="#ff8a80"
         id="path2676" /><path
         d="m 16,27 c -10e-4,0 -0.003,0 -0.005,0 C 15.686,26.997 8.407,26.926 6.091,26.698 5.945,26.672 5.822,26.657 5.684,26.64 4.91,26.544 3.615,26.384 2.575,25.263 1.61,24.259 1.306,22.119 1.294,22.028 1.281,21.919 1,19.545 1,17.128 V 14.862 C 1,12.444 1.281,10.07 1.293,9.97 1.307,9.871 1.61,7.731 2.581,6.72 3.699,5.515 4.944,5.391 5.613,5.324 L 5.788,5.305 C 9.841,5.003 15.933,5 15.994,5 c 0.073,0 6.165,0.003 10.195,0.303 l 0.198,0.021 c 0.669,0.066 1.914,0.19 3.037,1.402 0.965,1.005 1.27,3.145 1.282,3.235 C 30.719,10.07 31,12.444 31,14.862 v 2.266 c 0,2.418 -0.281,4.792 -0.293,4.892 -0.014,0.099 -0.318,2.239 -1.29,3.25 -1.116,1.205 -2.36,1.33 -3.029,1.397 l -0.176,0.019 C 22.159,26.988 16.062,27 16,27 Z M 16.006,6 C 15.934,6 9.878,6.003 5.885,6.3 L 5.712,6.319 C 5.137,6.376 4.175,6.472 3.309,7.406 2.682,8.06 2.357,9.57 2.285,10.098 2.283,10.113 2,12.506 2,14.862 v 2.266 c 0,2.358 0.283,4.749 0.286,4.772 0.072,0.52 0.398,2.032 1.016,2.676 0.797,0.859 1.784,0.981 2.505,1.071 0.164,0.021 0.309,0.039 0.428,0.062 2.21,0.216 9.591,0.289 9.767,0.291 0.16,0 6.153,-0.015 10.113,-0.31 l 0.174,-0.019 c 0.575,-0.058 1.537,-0.154 2.402,-1.088 0.627,-0.653 0.952,-2.164 1.025,-2.691 C 29.717,21.876 30,19.484 30,17.128 V 14.862 C 30,12.506 29.717,10.113 29.714,10.089 29.642,9.569 29.315,8.057 28.696,7.412 27.825,6.472 26.863,6.376 26.288,6.319 L 26.091,6.298 C 22.122,6.003 16.066,6 16.006,6 Z"
         fill="#455a64"
         id="path2678" /><polygon
         fill="#ffffff"
         points="21.5,15.5 12.5,19.5 12.5,11.5 "
         id="polygon2680" /><path
         d="M 12.5,20 C 12.405,20 12.31,19.973 12.228,19.919 12.085,19.827 12,19.669 12,19.5 v -5.969 c 0,-0.276 0.224,-0.5 0.5,-0.5 0.276,0 0.5,0.224 0.5,0.5 v 5.199 l 7.269,-3.23 -7.972,-3.543 c -0.252,-0.112 -0.366,-0.408 -0.254,-0.66 0.112,-0.252 0.408,-0.366 0.66,-0.254 l 9,4 C 21.884,15.124 22,15.302 22,15.5 c 0,0.198 -0.116,0.376 -0.297,0.457 l -9,4 C 12.638,19.986 12.569,20 12.5,20 Z"
         fill="#455a64"
         id="path2682" /></g><g
       id="g2792"
       transform="matrix(0.4377422,-0.36339212,0.34984048,0.42141789,157.31181,20.880976)"
       inkscape:spray-origin="#Youtube_1_"><path
         d="m 30.21,10.03 c 0,0 -0.284,-2.058 -1.153,-2.964 C 27.954,5.877 26.718,5.871 26.152,5.802 22.093,5.5 16.006,5.5 16.006,5.5 h -0.012 c 0,0 -6.087,0 -10.146,0.302 C 5.281,5.871 4.045,5.876 2.942,7.066 2.072,7.972 1.79,10.03 1.79,10.03 c 0,0 -0.29,2.416 -0.29,4.832 v 2.266 c 0,2.416 0.29,4.832 0.29,4.832 0,0 0.283,2.058 1.152,2.963 1.104,1.189 2.553,1.153 3.198,1.277 2.32,0.229 9.86,0.3 9.86,0.3 0,0 6.093,-0.009 10.152,-0.312 0.566,-0.07 1.803,-0.076 2.905,-1.266 0.87,-0.905 1.153,-2.963 1.153,-2.963 0,0 0.29,-2.416 0.29,-4.832 v -2.266 c 0,-2.415 -0.29,-4.831 -0.29,-4.831 z"
         fill="#ffffff"
         id="path2782" /><path
         d="M 29.755,8.282 C 28.736,7.385 27.667,7.365 27.151,7.302 23.093,7 17.006,7 17.006,7 h -0.012 c 0,0 -6.087,0 -10.146,0.302 C 6.281,7.371 5.045,7.376 3.942,8.566 3.072,9.472 2.79,11.53 2.79,11.53 c 0,0 -0.29,2.416 -0.29,4.832 v 2.266 c 0,2.416 0.29,4.832 0.29,4.832 0,0 0.124,0.875 0.449,1.734 1.054,0.902 2.311,0.892 2.901,1.006 2.32,0.229 9.86,0.3 9.86,0.3 0,0 6.093,-0.009 10.152,-0.312 0.566,-0.07 1.803,-0.076 2.905,-1.266 0.87,-0.905 1.153,-2.963 1.153,-2.963 0,0 0.29,-2.416 0.29,-4.832 v -2.266 c 0,-2.416 -0.29,-4.833 -0.29,-4.833 0,0 -0.126,-0.881 -0.455,-1.746 z"
         fill="#ff8a80"
         id="path2784" /><path
         d="m 16,27 c -10e-4,0 -0.003,0 -0.005,0 C 15.686,26.997 8.407,26.926 6.091,26.698 5.945,26.672 5.822,26.657 5.684,26.64 4.91,26.544 3.615,26.384 2.575,25.263 1.61,24.259 1.306,22.119 1.294,22.028 1.281,21.919 1,19.545 1,17.128 V 14.862 C 1,12.444 1.281,10.07 1.293,9.97 1.307,9.871 1.61,7.731 2.581,6.72 3.699,5.515 4.944,5.391 5.613,5.324 L 5.788,5.305 C 9.841,5.003 15.933,5 15.994,5 c 0.073,0 6.165,0.003 10.195,0.303 l 0.198,0.021 c 0.669,0.066 1.914,0.19 3.037,1.402 0.965,1.005 1.27,3.145 1.282,3.235 C 30.719,10.07 31,12.444 31,14.862 v 2.266 c 0,2.418 -0.281,4.792 -0.293,4.892 -0.014,0.099 -0.318,2.239 -1.29,3.25 -1.116,1.205 -2.36,1.33 -3.029,1.397 l -0.176,0.019 C 22.159,26.988 16.062,27 16,27 Z M 16.006,6 C 15.934,6 9.878,6.003 5.885,6.3 L 5.712,6.319 C 5.137,6.376 4.175,6.472 3.309,7.406 2.682,8.06 2.357,9.57 2.285,10.098 2.283,10.113 2,12.506 2,14.862 v 2.266 c 0,2.358 0.283,4.749 0.286,4.772 0.072,0.52 0.398,2.032 1.016,2.676 0.797,0.859 1.784,0.981 2.505,1.071 0.164,0.021 0.309,0.039 0.428,0.062 2.21,0.216 9.591,0.289 9.767,0.291 0.16,0 6.153,-0.015 10.113,-0.31 l 0.174,-0.019 c 0.575,-0.058 1.537,-0.154 2.402,-1.088 0.627,-0.653 0.952,-2.164 1.025,-2.691 C 29.717,21.876 30,19.484 30,17.128 V 14.862 C 30,12.506 29.717,10.113 29.714,10.089 29.642,9.569 29.315,8.057 28.696,7.412 27.825,6.472 26.863,6.376 26.288,6.319 L 26.091,6.298 C 22.122,6.003 16.066,6 16.006,6 Z"
         fill="#455a64"
         id="path2786" /><polygon
         fill="#ffffff"
         points="21.5,15.5 12.5,19.5 12.5,11.5 "
         id="polygon2788" /><path
         d="M 12.5,20 C 12.405,20 12.31,19.973 12.228,19.919 12.085,19.827 12,19.669 12,19.5 v -5.969 c 0,-0.276 0.224,-0.5 0.5,-0.5 0.276,0 0.5,0.224 0.5,0.5 v 5.199 l 7.269,-3.23 -7.972,-3.543 c -0.252,-0.112 -0.366,-0.408 -0.254,-0.66 0.112,-0.252 0.408,-0.366 0.66,-0.254 l 9,4 C 21.884,15.124 22,15.302 22,15.5 c 0,0.198 -0.116,0.376 -0.297,0.457 l -9,4 C 12.638,19.986 12.569,20 12.5,20 Z"
         fill="#455a64"
         id="path2790" /></g><g
       id="g2876"
       transform="matrix(0.50886274,0.25442243,-0.2449345,0.48988621,91.442824,-2.5496729)"
       inkscape:spray-origin="#Youtube_1_"><path
         d="m 30.21,10.03 c 0,0 -0.284,-2.058 -1.153,-2.964 C 27.954,5.877 26.718,5.871 26.152,5.802 22.093,5.5 16.006,5.5 16.006,5.5 h -0.012 c 0,0 -6.087,0 -10.146,0.302 C 5.281,5.871 4.045,5.876 2.942,7.066 2.072,7.972 1.79,10.03 1.79,10.03 c 0,0 -0.29,2.416 -0.29,4.832 v 2.266 c 0,2.416 0.29,4.832 0.29,4.832 0,0 0.283,2.058 1.152,2.963 1.104,1.189 2.553,1.153 3.198,1.277 2.32,0.229 9.86,0.3 9.86,0.3 0,0 6.093,-0.009 10.152,-0.312 0.566,-0.07 1.803,-0.076 2.905,-1.266 0.87,-0.905 1.153,-2.963 1.153,-2.963 0,0 0.29,-2.416 0.29,-4.832 v -2.266 c 0,-2.415 -0.29,-4.831 -0.29,-4.831 z"
         fill="#ffffff"
         id="path2866" /><path
         d="M 29.755,8.282 C 28.736,7.385 27.667,7.365 27.151,7.302 23.093,7 17.006,7 17.006,7 h -0.012 c 0,0 -6.087,0 -10.146,0.302 C 6.281,7.371 5.045,7.376 3.942,8.566 3.072,9.472 2.79,11.53 2.79,11.53 c 0,0 -0.29,2.416 -0.29,4.832 v 2.266 c 0,2.416 0.29,4.832 0.29,4.832 0,0 0.124,0.875 0.449,1.734 1.054,0.902 2.311,0.892 2.901,1.006 2.32,0.229 9.86,0.3 9.86,0.3 0,0 6.093,-0.009 10.152,-0.312 0.566,-0.07 1.803,-0.076 2.905,-1.266 0.87,-0.905 1.153,-2.963 1.153,-2.963 0,0 0.29,-2.416 0.29,-4.832 v -2.266 c 0,-2.416 -0.29,-4.833 -0.29,-4.833 0,0 -0.126,-0.881 -0.455,-1.746 z"
         fill="#ff8a80"
         id="path2868" /><path
         d="m 16,27 c -10e-4,0 -0.003,0 -0.005,0 C 15.686,26.997 8.407,26.926 6.091,26.698 5.945,26.672 5.822,26.657 5.684,26.64 4.91,26.544 3.615,26.384 2.575,25.263 1.61,24.259 1.306,22.119 1.294,22.028 1.281,21.919 1,19.545 1,17.128 V 14.862 C 1,12.444 1.281,10.07 1.293,9.97 1.307,9.871 1.61,7.731 2.581,6.72 3.699,5.515 4.944,5.391 5.613,5.324 L 5.788,5.305 C 9.841,5.003 15.933,5 15.994,5 c 0.073,0 6.165,0.003 10.195,0.303 l 0.198,0.021 c 0.669,0.066 1.914,0.19 3.037,1.402 0.965,1.005 1.27,3.145 1.282,3.235 C 30.719,10.07 31,12.444 31,14.862 v 2.266 c 0,2.418 -0.281,4.792 -0.293,4.892 -0.014,0.099 -0.318,2.239 -1.29,3.25 -1.116,1.205 -2.36,1.33 -3.029,1.397 l -0.176,0.019 C 22.159,26.988 16.062,27 16,27 Z M 16.006,6 C 15.934,6 9.878,6.003 5.885,6.3 L 5.712,6.319 C 5.137,6.376 4.175,6.472 3.309,7.406 2.682,8.06 2.357,9.57 2.285,10.098 2.283,10.113 2,12.506 2,14.862 v 2.266 c 0,2.358 0.283,4.749 0.286,4.772 0.072,0.52 0.398,2.032 1.016,2.676 0.797,0.859 1.784,0.981 2.505,1.071 0.164,0.021 0.309,0.039 0.428,0.062 2.21,0.216 9.591,0.289 9.767,0.291 0.16,0 6.153,-0.015 10.113,-0.31 l 0.174,-0.019 c 0.575,-0.058 1.537,-0.154 2.402,-1.088 0.627,-0.653 0.952,-2.164 1.025,-2.691 C 29.717,21.876 30,19.484 30,17.128 V 14.862 C 30,12.506 29.717,10.113 29.714,10.089 29.642,9.569 29.315,8.057 28.696,7.412 27.825,6.472 26.863,6.376 26.288,6.319 L 26.091,6.298 C 22.122,6.003 16.066,6 16.006,6 Z"
         fill="#455a64"
         id="path2870" /><polygon
         fill="#ffffff"
         points="21.5,15.5 12.5,19.5 12.5,11.5 "
         id="polygon2872" /><path
         d="M 12.5,20 C 12.405,20 12.31,19.973 12.228,19.919 12.085,19.827 12,19.669 12,19.5 v -5.969 c 0,-0.276 0.224,-0.5 0.5,-0.5 0.276,0 0.5,0.224 0.5,0.5 v 5.199 l 7.269,-3.23 -7.972,-3.543 c -0.252,-0.112 -0.366,-0.408 -0.254,-0.66 0.112,-0.252 0.408,-0.366 0.66,-0.254 l 9,4 C 21.884,15.124 22,15.302 22,15.5 c 0,0.198 -0.116,0.376 -0.297,0.457 l -9,4 C 12.638,19.986 12.569,20 12.5,20 Z"
         fill="#455a64"
         id="path2874" /></g><g
       id="g2960"
       transform="matrix(0.56892184,0,0,0.54770558,264.50513,182.1032)"
       inkscape:spray-origin="#Youtube_1_"
       style="stroke:#e4e4e4;stroke-opacity:1;fill:#e4e4e4;fill-opacity:1"><path
         d="m 30.21,10.03 c 0,0 -0.284,-2.058 -1.153,-2.964 C 27.954,5.877 26.718,5.871 26.152,5.802 22.093,5.5 16.006,5.5 16.006,5.5 h -0.012 c 0,0 -6.087,0 -10.146,0.302 C 5.281,5.871 4.045,5.876 2.942,7.066 2.072,7.972 1.79,10.03 1.79,10.03 c 0,0 -0.29,2.416 -0.29,4.832 v 2.266 c 0,2.416 0.29,4.832 0.29,4.832 0,0 0.283,2.058 1.152,2.963 1.104,1.189 2.553,1.153 3.198,1.277 2.32,0.229 9.86,0.3 9.86,0.3 0,0 6.093,-0.009 10.152,-0.312 0.566,-0.07 1.803,-0.076 2.905,-1.266 0.87,-0.905 1.153,-2.963 1.153,-2.963 0,0 0.29,-2.416 0.29,-4.832 v -2.266 c 0,-2.415 -0.29,-4.831 -0.29,-4.831 z"
         fill="#ffffff"
         id="path2950"
         style="stroke:#e4e4e4;stroke-opacity:1;fill:#e4e4e4;fill-opacity:1" /><path
         d="M 29.755,8.282 C 28.736,7.385 27.667,7.365 27.151,7.302 23.093,7 17.006,7 17.006,7 h -0.012 c 0,0 -6.087,0 -10.146,0.302 C 6.281,7.371 5.045,7.376 3.942,8.566 3.072,9.472 2.79,11.53 2.79,11.53 c 0,0 -0.29,2.416 -0.29,4.832 v 2.266 c 0,2.416 0.29,4.832 0.29,4.832 0,0 0.124,0.875 0.449,1.734 1.054,0.902 2.311,0.892 2.901,1.006 2.32,0.229 9.86,0.3 9.86,0.3 0,0 6.093,-0.009 10.152,-0.312 0.566,-0.07 1.803,-0.076 2.905,-1.266 0.87,-0.905 1.153,-2.963 1.153,-2.963 0,0 0.29,-2.416 0.29,-4.832 v -2.266 c 0,-2.416 -0.29,-4.833 -0.29,-4.833 0,0 -0.126,-0.881 -0.455,-1.746 z"
         fill="#ff8a80"
         id="path2952"
         style="stroke:#e4e4e4;stroke-opacity:1;fill:#e4e4e4;fill-opacity:1" /><path
         d="m 16,27 c -10e-4,0 -0.003,0 -0.005,0 C 15.686,26.997 8.407,26.926 6.091,26.698 5.945,26.672 5.822,26.657 5.684,26.64 4.91,26.544 3.615,26.384 2.575,25.263 1.61,24.259 1.306,22.119 1.294,22.028 1.281,21.919 1,19.545 1,17.128 V 14.862 C 1,12.444 1.281,10.07 1.293,9.97 1.307,9.871 1.61,7.731 2.581,6.72 3.699,5.515 4.944,5.391 5.613,5.324 L 5.788,5.305 C 9.841,5.003 15.933,5 15.994,5 c 0.073,0 6.165,0.003 10.195,0.303 l 0.198,0.021 c 0.669,0.066 1.914,0.19 3.037,1.402 0.965,1.005 1.27,3.145 1.282,3.235 C 30.719,10.07 31,12.444 31,14.862 v 2.266 c 0,2.418 -0.281,4.792 -0.293,4.892 -0.014,0.099 -0.318,2.239 -1.29,3.25 -1.116,1.205 -2.36,1.33 -3.029,1.397 l -0.176,0.019 C 22.159,26.988 16.062,27 16,27 Z M 16.006,6 C 15.934,6 9.878,6.003 5.885,6.3 L 5.712,6.319 C 5.137,6.376 4.175,6.472 3.309,7.406 2.682,8.06 2.357,9.57 2.285,10.098 2.283,10.113 2,12.506 2,14.862 v 2.266 c 0,2.358 0.283,4.749 0.286,4.772 0.072,0.52 0.398,2.032 1.016,2.676 0.797,0.859 1.784,0.981 2.505,1.071 0.164,0.021 0.309,0.039 0.428,0.062 2.21,0.216 9.591,0.289 9.767,0.291 0.16,0 6.153,-0.015 10.113,-0.31 l 0.174,-0.019 c 0.575,-0.058 1.537,-0.154 2.402,-1.088 0.627,-0.653 0.952,-2.164 1.025,-2.691 C 29.717,21.876 30,19.484 30,17.128 V 14.862 C 30,12.506 29.717,10.113 29.714,10.089 29.642,9.569 29.315,8.057 28.696,7.412 27.825,6.472 26.863,6.376 26.288,6.319 L 26.091,6.298 C 22.122,6.003 16.066,6 16.006,6 Z"
         fill="#455a64"
         id="path2954"
         style="stroke:#e4e4e4;stroke-opacity:1;fill:#e4e4e4;fill-opacity:1" /><polygon
         fill="#ffffff"
         points="21.5,15.5 12.5,19.5 12.5,11.5 "
         id="polygon2956"
         style="stroke:#e4e4e4;stroke-opacity:1;fill:#e4e4e4;fill-opacity:1" /><path
         d="M 12.5,20 C 12.405,20 12.31,19.973 12.228,19.919 12.085,19.827 12,19.669 12,19.5 v -5.969 c 0,-0.276 0.224,-0.5 0.5,-0.5 0.276,0 0.5,0.224 0.5,0.5 v 5.199 l 7.269,-3.23 -7.972,-3.543 c -0.252,-0.112 -0.366,-0.408 -0.254,-0.66 0.112,-0.252 0.408,-0.366 0.66,-0.254 l 9,4 C 21.884,15.124 22,15.302 22,15.5 c 0,0.198 -0.116,0.376 -0.297,0.457 l -9,4 C 12.638,19.986 12.569,20 12.5,20 Z"
         fill="#455a64"
         id="path2958"
         style="stroke:#e4e4e4;stroke-opacity:1;fill:#e4e4e4;fill-opacity:1" /></g><g
       id="g2984"
       transform="matrix(0.56892184,0,0,0.54770558,254.47063,165.14938)"
       inkscape:spray-origin="#Youtube_1_"
       style="stroke:#e4e4e4;stroke-opacity:1;fill:#e4e4e4;fill-opacity:1"><path
         d="m 30.21,10.03 c 0,0 -0.284,-2.058 -1.153,-2.964 C 27.954,5.877 26.718,5.871 26.152,5.802 22.093,5.5 16.006,5.5 16.006,5.5 h -0.012 c 0,0 -6.087,0 -10.146,0.302 C 5.281,5.871 4.045,5.876 2.942,7.066 2.072,7.972 1.79,10.03 1.79,10.03 c 0,0 -0.29,2.416 -0.29,4.832 v 2.266 c 0,2.416 0.29,4.832 0.29,4.832 0,0 0.283,2.058 1.152,2.963 1.104,1.189 2.553,1.153 3.198,1.277 2.32,0.229 9.86,0.3 9.86,0.3 0,0 6.093,-0.009 10.152,-0.312 0.566,-0.07 1.803,-0.076 2.905,-1.266 0.87,-0.905 1.153,-2.963 1.153,-2.963 0,0 0.29,-2.416 0.29,-4.832 v -2.266 c 0,-2.415 -0.29,-4.831 -0.29,-4.831 z"
         fill="#ffffff"
         id="path2974"
         style="stroke:#e4e4e4;stroke-opacity:1;fill:#e4e4e4;fill-opacity:1" /><path
         d="M 29.755,8.282 C 28.736,7.385 27.667,7.365 27.151,7.302 23.093,7 17.006,7 17.006,7 h -0.012 c 0,0 -6.087,0 -10.146,0.302 C 6.281,7.371 5.045,7.376 3.942,8.566 3.072,9.472 2.79,11.53 2.79,11.53 c 0,0 -0.29,2.416 -0.29,4.832 v 2.266 c 0,2.416 0.29,4.832 0.29,4.832 0,0 0.124,0.875 0.449,1.734 1.054,0.902 2.311,0.892 2.901,1.006 2.32,0.229 9.86,0.3 9.86,0.3 0,0 6.093,-0.009 10.152,-0.312 0.566,-0.07 1.803,-0.076 2.905,-1.266 0.87,-0.905 1.153,-2.963 1.153,-2.963 0,0 0.29,-2.416 0.29,-4.832 v -2.266 c 0,-2.416 -0.29,-4.833 -0.29,-4.833 0,0 -0.126,-0.881 -0.455,-1.746 z"
         fill="#ff8a80"
         id="path2976"
         style="stroke:#e4e4e4;stroke-opacity:1;fill:#e4e4e4;fill-opacity:1" /><path
         d="m 16,27 c -10e-4,0 -0.003,0 -0.005,0 C 15.686,26.997 8.407,26.926 6.091,26.698 5.945,26.672 5.822,26.657 5.684,26.64 4.91,26.544 3.615,26.384 2.575,25.263 1.61,24.259 1.306,22.119 1.294,22.028 1.281,21.919 1,19.545 1,17.128 V 14.862 C 1,12.444 1.281,10.07 1.293,9.97 1.307,9.871 1.61,7.731 2.581,6.72 3.699,5.515 4.944,5.391 5.613,5.324 L 5.788,5.305 C 9.841,5.003 15.933,5 15.994,5 c 0.073,0 6.165,0.003 10.195,0.303 l 0.198,0.021 c 0.669,0.066 1.914,0.19 3.037,1.402 0.965,1.005 1.27,3.145 1.282,3.235 C 30.719,10.07 31,12.444 31,14.862 v 2.266 c 0,2.418 -0.281,4.792 -0.293,4.892 -0.014,0.099 -0.318,2.239 -1.29,3.25 -1.116,1.205 -2.36,1.33 -3.029,1.397 l -0.176,0.019 C 22.159,26.988 16.062,27 16,27 Z M 16.006,6 C 15.934,6 9.878,6.003 5.885,6.3 L 5.712,6.319 C 5.137,6.376 4.175,6.472 3.309,7.406 2.682,8.06 2.357,9.57 2.285,10.098 2.283,10.113 2,12.506 2,14.862 v 2.266 c 0,2.358 0.283,4.749 0.286,4.772 0.072,0.52 0.398,2.032 1.016,2.676 0.797,0.859 1.784,0.981 2.505,1.071 0.164,0.021 0.309,0.039 0.428,0.062 2.21,0.216 9.591,0.289 9.767,0.291 0.16,0 6.153,-0.015 10.113,-0.31 l 0.174,-0.019 c 0.575,-0.058 1.537,-0.154 2.402,-1.088 0.627,-0.653 0.952,-2.164 1.025,-2.691 C 29.717,21.876 30,19.484 30,17.128 V 14.862 C 30,12.506 29.717,10.113 29.714,10.089 29.642,9.569 29.315,8.057 28.696,7.412 27.825,6.472 26.863,6.376 26.288,6.319 L 26.091,6.298 C 22.122,6.003 16.066,6 16.006,6 Z"
         fill="#455a64"
         id="path2978"
         style="stroke:#e4e4e4;stroke-opacity:1;fill:#e4e4e4;fill-opacity:1" /><polygon
         fill="#ffffff"
         points="21.5,15.5 12.5,19.5 12.5,11.5 "
         id="polygon2980"
         style="stroke:#e4e4e4;stroke-opacity:1;fill:#e4e4e4;fill-opacity:1" /><path
         d="M 12.5,20 C 12.405,20 12.31,19.973 12.228,19.919 12.085,19.827 12,19.669 12,19.5 v -5.969 c 0,-0.276 0.224,-0.5 0.5,-0.5 0.276,0 0.5,0.224 0.5,0.5 v 5.199 l 7.269,-3.23 -7.972,-3.543 c -0.252,-0.112 -0.366,-0.408 -0.254,-0.66 0.112,-0.252 0.408,-0.366 0.66,-0.254 l 9,4 C 21.884,15.124 22,15.302 22,15.5 c 0,0.198 -0.116,0.376 -0.297,0.457 l -9,4 C 12.638,19.986 12.569,20 12.5,20 Z"
         fill="#455a64"
         id="path2982"
         style="stroke:#e4e4e4;stroke-opacity:1;fill:#e4e4e4;fill-opacity:1" /></g><g
       id="g2996"
       transform="matrix(0.56892184,0,0,0.54770558,248.81593,192.58044)"
       inkscape:spray-origin="#Youtube_1_"
       style="stroke:#e4e4e4;stroke-opacity:1;fill:#e4e4e4;fill-opacity:1"><path
         d="m 30.21,10.03 c 0,0 -0.284,-2.058 -1.153,-2.964 C 27.954,5.877 26.718,5.871 26.152,5.802 22.093,5.5 16.006,5.5 16.006,5.5 h -0.012 c 0,0 -6.087,0 -10.146,0.302 C 5.281,5.871 4.045,5.876 2.942,7.066 2.072,7.972 1.79,10.03 1.79,10.03 c 0,0 -0.29,2.416 -0.29,4.832 v 2.266 c 0,2.416 0.29,4.832 0.29,4.832 0,0 0.283,2.058 1.152,2.963 1.104,1.189 2.553,1.153 3.198,1.277 2.32,0.229 9.86,0.3 9.86,0.3 0,0 6.093,-0.009 10.152,-0.312 0.566,-0.07 1.803,-0.076 2.905,-1.266 0.87,-0.905 1.153,-2.963 1.153,-2.963 0,0 0.29,-2.416 0.29,-4.832 v -2.266 c 0,-2.415 -0.29,-4.831 -0.29,-4.831 z"
         fill="#ffffff"
         id="path2986"
         style="stroke:#e4e4e4;stroke-opacity:1;fill:#e4e4e4;fill-opacity:1" /><path
         d="M 29.755,8.282 C 28.736,7.385 27.667,7.365 27.151,7.302 23.093,7 17.006,7 17.006,7 h -0.012 c 0,0 -6.087,0 -10.146,0.302 C 6.281,7.371 5.045,7.376 3.942,8.566 3.072,9.472 2.79,11.53 2.79,11.53 c 0,0 -0.29,2.416 -0.29,4.832 v 2.266 c 0,2.416 0.29,4.832 0.29,4.832 0,0 0.124,0.875 0.449,1.734 1.054,0.902 2.311,0.892 2.901,1.006 2.32,0.229 9.86,0.3 9.86,0.3 0,0 6.093,-0.009 10.152,-0.312 0.566,-0.07 1.803,-0.076 2.905,-1.266 0.87,-0.905 1.153,-2.963 1.153,-2.963 0,0 0.29,-2.416 0.29,-4.832 v -2.266 c 0,-2.416 -0.29,-4.833 -0.29,-4.833 0,0 -0.126,-0.881 -0.455,-1.746 z"
         fill="#ff8a80"
         id="path2988"
         style="stroke:#e4e4e4;stroke-opacity:1;fill:#e4e4e4;fill-opacity:1" /><path
         d="m 16,27 c -10e-4,0 -0.003,0 -0.005,0 C 15.686,26.997 8.407,26.926 6.091,26.698 5.945,26.672 5.822,26.657 5.684,26.64 4.91,26.544 3.615,26.384 2.575,25.263 1.61,24.259 1.306,22.119 1.294,22.028 1.281,21.919 1,19.545 1,17.128 V 14.862 C 1,12.444 1.281,10.07 1.293,9.97 1.307,9.871 1.61,7.731 2.581,6.72 3.699,5.515 4.944,5.391 5.613,5.324 L 5.788,5.305 C 9.841,5.003 15.933,5 15.994,5 c 0.073,0 6.165,0.003 10.195,0.303 l 0.198,0.021 c 0.669,0.066 1.914,0.19 3.037,1.402 0.965,1.005 1.27,3.145 1.282,3.235 C 30.719,10.07 31,12.444 31,14.862 v 2.266 c 0,2.418 -0.281,4.792 -0.293,4.892 -0.014,0.099 -0.318,2.239 -1.29,3.25 -1.116,1.205 -2.36,1.33 -3.029,1.397 l -0.176,0.019 C 22.159,26.988 16.062,27 16,27 Z M 16.006,6 C 15.934,6 9.878,6.003 5.885,6.3 L 5.712,6.319 C 5.137,6.376 4.175,6.472 3.309,7.406 2.682,8.06 2.357,9.57 2.285,10.098 2.283,10.113 2,12.506 2,14.862 v 2.266 c 0,2.358 0.283,4.749 0.286,4.772 0.072,0.52 0.398,2.032 1.016,2.676 0.797,0.859 1.784,0.981 2.505,1.071 0.164,0.021 0.309,0.039 0.428,0.062 2.21,0.216 9.591,0.289 9.767,0.291 0.16,0 6.153,-0.015 10.113,-0.31 l 0.174,-0.019 c 0.575,-0.058 1.537,-0.154 2.402,-1.088 0.627,-0.653 0.952,-2.164 1.025,-2.691 C 29.717,21.876 30,19.484 30,17.128 V 14.862 C 30,12.506 29.717,10.113 29.714,10.089 29.642,9.569 29.315,8.057 28.696,7.412 27.825,6.472 26.863,6.376 26.288,6.319 L 26.091,6.298 C 22.122,6.003 16.066,6 16.006,6 Z"
         fill="#455a64"
         id="path2990"
         style="stroke:#e4e4e4;stroke-opacity:1;fill:#e4e4e4;fill-opacity:1" /><polygon
         fill="#ffffff"
         points="21.5,15.5 12.5,19.5 12.5,11.5 "
         id="polygon2992"
         style="stroke:#e4e4e4;stroke-opacity:1;fill:#e4e4e4;fill-opacity:1" /><path
         d="M 12.5,20 C 12.405,20 12.31,19.973 12.228,19.919 12.085,19.827 12,19.669 12,19.5 v -5.969 c 0,-0.276 0.224,-0.5 0.5,-0.5 0.276,0 0.5,0.224 0.5,0.5 v 5.199 l 7.269,-3.23 -7.972,-3.543 c -0.252,-0.112 -0.366,-0.408 -0.254,-0.66 0.112,-0.252 0.408,-0.366 0.66,-0.254 l 9,4 C 21.884,15.124 22,15.302 22,15.5 c 0,0.198 -0.116,0.376 -0.297,0.457 l -9,4 C 12.638,19.986 12.569,20 12.5,20 Z"
         fill="#455a64"
         id="path2994"
         style="stroke:#e4e4e4;stroke-opacity:1;fill:#e4e4e4;fill-opacity:1" /></g><g
       id="g3008"
       transform="matrix(0.56892184,0,0,0.54770558,252.50661,197.73625)"
       inkscape:spray-origin="#Youtube_1_"
       style="stroke:#e4e4e4;stroke-opacity:1;fill:#e4e4e4;fill-opacity:1"><path
         d="m 30.21,10.03 c 0,0 -0.284,-2.058 -1.153,-2.964 C 27.954,5.877 26.718,5.871 26.152,5.802 22.093,5.5 16.006,5.5 16.006,5.5 h -0.012 c 0,0 -6.087,0 -10.146,0.302 C 5.281,5.871 4.045,5.876 2.942,7.066 2.072,7.972 1.79,10.03 1.79,10.03 c 0,0 -0.29,2.416 -0.29,4.832 v 2.266 c 0,2.416 0.29,4.832 0.29,4.832 0,0 0.283,2.058 1.152,2.963 1.104,1.189 2.553,1.153 3.198,1.277 2.32,0.229 9.86,0.3 9.86,0.3 0,0 6.093,-0.009 10.152,-0.312 0.566,-0.07 1.803,-0.076 2.905,-1.266 0.87,-0.905 1.153,-2.963 1.153,-2.963 0,0 0.29,-2.416 0.29,-4.832 v -2.266 c 0,-2.415 -0.29,-4.831 -0.29,-4.831 z"
         fill="#ffffff"
         id="path2998"
         style="stroke:#e4e4e4;stroke-opacity:1;fill:#e4e4e4;fill-opacity:1" /><path
         d="M 29.755,8.282 C 28.736,7.385 27.667,7.365 27.151,7.302 23.093,7 17.006,7 17.006,7 h -0.012 c 0,0 -6.087,0 -10.146,0.302 C 6.281,7.371 5.045,7.376 3.942,8.566 3.072,9.472 2.79,11.53 2.79,11.53 c 0,0 -0.29,2.416 -0.29,4.832 v 2.266 c 0,2.416 0.29,4.832 0.29,4.832 0,0 0.124,0.875 0.449,1.734 1.054,0.902 2.311,0.892 2.901,1.006 2.32,0.229 9.86,0.3 9.86,0.3 0,0 6.093,-0.009 10.152,-0.312 0.566,-0.07 1.803,-0.076 2.905,-1.266 0.87,-0.905 1.153,-2.963 1.153,-2.963 0,0 0.29,-2.416 0.29,-4.832 v -2.266 c 0,-2.416 -0.29,-4.833 -0.29,-4.833 0,0 -0.126,-0.881 -0.455,-1.746 z"
         fill="#ff8a80"
         id="path3000"
         style="stroke:#e4e4e4;stroke-opacity:1;fill:#e4e4e4;fill-opacity:1" /><path
         d="m 16,27 c -10e-4,0 -0.003,0 -0.005,0 C 15.686,26.997 8.407,26.926 6.091,26.698 5.945,26.672 5.822,26.657 5.684,26.64 4.91,26.544 3.615,26.384 2.575,25.263 1.61,24.259 1.306,22.119 1.294,22.028 1.281,21.919 1,19.545 1,17.128 V 14.862 C 1,12.444 1.281,10.07 1.293,9.97 1.307,9.871 1.61,7.731 2.581,6.72 3.699,5.515 4.944,5.391 5.613,5.324 L 5.788,5.305 C 9.841,5.003 15.933,5 15.994,5 c 0.073,0 6.165,0.003 10.195,0.303 l 0.198,0.021 c 0.669,0.066 1.914,0.19 3.037,1.402 0.965,1.005 1.27,3.145 1.282,3.235 C 30.719,10.07 31,12.444 31,14.862 v 2.266 c 0,2.418 -0.281,4.792 -0.293,4.892 -0.014,0.099 -0.318,2.239 -1.29,3.25 -1.116,1.205 -2.36,1.33 -3.029,1.397 l -0.176,0.019 C 22.159,26.988 16.062,27 16,27 Z M 16.006,6 C 15.934,6 9.878,6.003 5.885,6.3 L 5.712,6.319 C 5.137,6.376 4.175,6.472 3.309,7.406 2.682,8.06 2.357,9.57 2.285,10.098 2.283,10.113 2,12.506 2,14.862 v 2.266 c 0,2.358 0.283,4.749 0.286,4.772 0.072,0.52 0.398,2.032 1.016,2.676 0.797,0.859 1.784,0.981 2.505,1.071 0.164,0.021 0.309,0.039 0.428,0.062 2.21,0.216 9.591,0.289 9.767,0.291 0.16,0 6.153,-0.015 10.113,-0.31 l 0.174,-0.019 c 0.575,-0.058 1.537,-0.154 2.402,-1.088 0.627,-0.653 0.952,-2.164 1.025,-2.691 C 29.717,21.876 30,19.484 30,17.128 V 14.862 C 30,12.506 29.717,10.113 29.714,10.089 29.642,9.569 29.315,8.057 28.696,7.412 27.825,6.472 26.863,6.376 26.288,6.319 L 26.091,6.298 C 22.122,6.003 16.066,6 16.006,6 Z"
         fill="#455a64"
         id="path3002"
         style="stroke:#e4e4e4;stroke-opacity:1;fill:#e4e4e4;fill-opacity:1" /><polygon
         fill="#ffffff"
         points="21.5,15.5 12.5,19.5 12.5,11.5 "
         id="polygon3004"
         style="stroke:#e4e4e4;stroke-opacity:1;fill:#e4e4e4;fill-opacity:1" /><path
         d="M 12.5,20 C 12.405,20 12.31,19.973 12.228,19.919 12.085,19.827 12,19.669 12,19.5 v -5.969 c 0,-0.276 0.224,-0.5 0.5,-0.5 0.276,0 0.5,0.224 0.5,0.5 v 5.199 l 7.269,-3.23 -7.972,-3.543 c -0.252,-0.112 -0.366,-0.408 -0.254,-0.66 0.112,-0.252 0.408,-0.366 0.66,-0.254 l 9,4 C 21.884,15.124 22,15.302 22,15.5 c 0,0.198 -0.116,0.376 -0.297,0.457 l -9,4 C 12.638,19.986 12.569,20 12.5,20 Z"
         fill="#455a64"
         id="path3006"
         style="stroke:#e4e4e4;stroke-opacity:1;fill:#e4e4e4;fill-opacity:1" /></g><g
       id="g3044"
       transform="matrix(0.22017762,0.52458925,-0.50502624,0.21196674,129.0892,66.116233)"
       inkscape:spray-origin="#Youtube_1_"><path
         d="m 30.21,10.03 c 0,0 -0.284,-2.058 -1.153,-2.964 C 27.954,5.877 26.718,5.871 26.152,5.802 22.093,5.5 16.006,5.5 16.006,5.5 h -0.012 c 0,0 -6.087,0 -10.146,0.302 C 5.281,5.871 4.045,5.876 2.942,7.066 2.072,7.972 1.79,10.03 1.79,10.03 c 0,0 -0.29,2.416 -0.29,4.832 v 2.266 c 0,2.416 0.29,4.832 0.29,4.832 0,0 0.283,2.058 1.152,2.963 1.104,1.189 2.553,1.153 3.198,1.277 2.32,0.229 9.86,0.3 9.86,0.3 0,0 6.093,-0.009 10.152,-0.312 0.566,-0.07 1.803,-0.076 2.905,-1.266 0.87,-0.905 1.153,-2.963 1.153,-2.963 0,0 0.29,-2.416 0.29,-4.832 v -2.266 c 0,-2.415 -0.29,-4.831 -0.29,-4.831 z"
         fill="#ffffff"
         id="path3034" /><path
         d="M 29.755,8.282 C 28.736,7.385 27.667,7.365 27.151,7.302 23.093,7 17.006,7 17.006,7 h -0.012 c 0,0 -6.087,0 -10.146,0.302 C 6.281,7.371 5.045,7.376 3.942,8.566 3.072,9.472 2.79,11.53 2.79,11.53 c 0,0 -0.29,2.416 -0.29,4.832 v 2.266 c 0,2.416 0.29,4.832 0.29,4.832 0,0 0.124,0.875 0.449,1.734 1.054,0.902 2.311,0.892 2.901,1.006 2.32,0.229 9.86,0.3 9.86,0.3 0,0 6.093,-0.009 10.152,-0.312 0.566,-0.07 1.803,-0.076 2.905,-1.266 0.87,-0.905 1.153,-2.963 1.153,-2.963 0,0 0.29,-2.416 0.29,-4.832 v -2.266 c 0,-2.416 -0.29,-4.833 -0.29,-4.833 0,0 -0.126,-0.881 -0.455,-1.746 z"
         fill="#ff8a80"
         id="path3036" /><path
         d="m 16,27 c -10e-4,0 -0.003,0 -0.005,0 C 15.686,26.997 8.407,26.926 6.091,26.698 5.945,26.672 5.822,26.657 5.684,26.64 4.91,26.544 3.615,26.384 2.575,25.263 1.61,24.259 1.306,22.119 1.294,22.028 1.281,21.919 1,19.545 1,17.128 V 14.862 C 1,12.444 1.281,10.07 1.293,9.97 1.307,9.871 1.61,7.731 2.581,6.72 3.699,5.515 4.944,5.391 5.613,5.324 L 5.788,5.305 C 9.841,5.003 15.933,5 15.994,5 c 0.073,0 6.165,0.003 10.195,0.303 l 0.198,0.021 c 0.669,0.066 1.914,0.19 3.037,1.402 0.965,1.005 1.27,3.145 1.282,3.235 C 30.719,10.07 31,12.444 31,14.862 v 2.266 c 0,2.418 -0.281,4.792 -0.293,4.892 -0.014,0.099 -0.318,2.239 -1.29,3.25 -1.116,1.205 -2.36,1.33 -3.029,1.397 l -0.176,0.019 C 22.159,26.988 16.062,27 16,27 Z M 16.006,6 C 15.934,6 9.878,6.003 5.885,6.3 L 5.712,6.319 C 5.137,6.376 4.175,6.472 3.309,7.406 2.682,8.06 2.357,9.57 2.285,10.098 2.283,10.113 2,12.506 2,14.862 v 2.266 c 0,2.358 0.283,4.749 0.286,4.772 0.072,0.52 0.398,2.032 1.016,2.676 0.797,0.859 1.784,0.981 2.505,1.071 0.164,0.021 0.309,0.039 0.428,0.062 2.21,0.216 9.591,0.289 9.767,0.291 0.16,0 6.153,-0.015 10.113,-0.31 l 0.174,-0.019 c 0.575,-0.058 1.537,-0.154 2.402,-1.088 0.627,-0.653 0.952,-2.164 1.025,-2.691 C 29.717,21.876 30,19.484 30,17.128 V 14.862 C 30,12.506 29.717,10.113 29.714,10.089 29.642,9.569 29.315,8.057 28.696,7.412 27.825,6.472 26.863,6.376 26.288,6.319 L 26.091,6.298 C 22.122,6.003 16.066,6 16.006,6 Z"
         fill="#455a64"
         id="path3038" /><polygon
         fill="#ffffff"
         points="12.5,11.5 21.5,15.5 12.5,19.5 "
         id="polygon3040" /><path
         d="M 12.5,20 C 12.405,20 12.31,19.973 12.228,19.919 12.085,19.827 12,19.669 12,19.5 v -5.969 c 0,-0.276 0.224,-0.5 0.5,-0.5 0.276,0 0.5,0.224 0.5,0.5 v 5.199 l 7.269,-3.23 -7.972,-3.543 c -0.252,-0.112 -0.366,-0.408 -0.254,-0.66 0.112,-0.252 0.408,-0.366 0.66,-0.254 l 9,4 C 21.884,15.124 22,15.302 22,15.5 c 0,0.198 -0.116,0.376 -0.297,0.457 l -9,4 C 12.638,19.986 12.569,20 12.5,20 Z"
         fill="#455a64"
         id="path3042" /></g><g
       id="g3128"
       transform="matrix(0.5035976,0.26469136,-0.25482047,0.48481742,17.885974,101.27339)"
       inkscape:spray-origin="#Youtube_1_"><path
         d="m 30.21,10.03 c 0,0 -0.284,-2.058 -1.153,-2.964 C 27.954,5.877 26.718,5.871 26.152,5.802 22.093,5.5 16.006,5.5 16.006,5.5 h -0.012 c 0,0 -6.087,0 -10.146,0.302 C 5.281,5.871 4.045,5.876 2.942,7.066 2.072,7.972 1.79,10.03 1.79,10.03 c 0,0 -0.29,2.416 -0.29,4.832 v 2.266 c 0,2.416 0.29,4.832 0.29,4.832 0,0 0.283,2.058 1.152,2.963 1.104,1.189 2.553,1.153 3.198,1.277 2.32,0.229 9.86,0.3 9.86,0.3 0,0 6.093,-0.009 10.152,-0.312 0.566,-0.07 1.803,-0.076 2.905,-1.266 0.87,-0.905 1.153,-2.963 1.153,-2.963 0,0 0.29,-2.416 0.29,-4.832 v -2.266 c 0,-2.415 -0.29,-4.831 -0.29,-4.831 z"
         fill="#ffffff"
         id="path3118" /><path
         d="M 29.755,8.282 C 28.736,7.385 27.667,7.365 27.151,7.302 23.093,7 17.006,7 17.006,7 h -0.012 c 0,0 -6.087,0 -10.146,0.302 C 6.281,7.371 5.045,7.376 3.942,8.566 3.072,9.472 2.79,11.53 2.79,11.53 c 0,0 -0.29,2.416 -0.29,4.832 v 2.266 c 0,2.416 0.29,4.832 0.29,4.832 0,0 0.124,0.875 0.449,1.734 1.054,0.902 2.311,0.892 2.901,1.006 2.32,0.229 9.86,0.3 9.86,0.3 0,0 6.093,-0.009 10.152,-0.312 0.566,-0.07 1.803,-0.076 2.905,-1.266 0.87,-0.905 1.153,-2.963 1.153,-2.963 0,0 0.29,-2.416 0.29,-4.832 v -2.266 c 0,-2.416 -0.29,-4.833 -0.29,-4.833 0,0 -0.126,-0.881 -0.455,-1.746 z"
         fill="#ff8a80"
         id="path3120" /><path
         d="m 16,27 c -10e-4,0 -0.003,0 -0.005,0 C 15.686,26.997 8.407,26.926 6.091,26.698 5.945,26.672 5.822,26.657 5.684,26.64 4.91,26.544 3.615,26.384 2.575,25.263 1.61,24.259 1.306,22.119 1.294,22.028 1.281,21.919 1,19.545 1,17.128 V 14.862 C 1,12.444 1.281,10.07 1.293,9.97 1.307,9.871 1.61,7.731 2.581,6.72 3.699,5.515 4.944,5.391 5.613,5.324 L 5.788,5.305 C 9.841,5.003 15.933,5 15.994,5 c 0.073,0 6.165,0.003 10.195,0.303 l 0.198,0.021 c 0.669,0.066 1.914,0.19 3.037,1.402 0.965,1.005 1.27,3.145 1.282,3.235 C 30.719,10.07 31,12.444 31,14.862 v 2.266 c 0,2.418 -0.281,4.792 -0.293,4.892 -0.014,0.099 -0.318,2.239 -1.29,3.25 -1.116,1.205 -2.36,1.33 -3.029,1.397 l -0.176,0.019 C 22.159,26.988 16.062,27 16,27 Z M 16.006,6 C 15.934,6 9.878,6.003 5.885,6.3 L 5.712,6.319 C 5.137,6.376 4.175,6.472 3.309,7.406 2.682,8.06 2.357,9.57 2.285,10.098 2.283,10.113 2,12.506 2,14.862 v 2.266 c 0,2.358 0.283,4.749 0.286,4.772 0.072,0.52 0.398,2.032 1.016,2.676 0.797,0.859 1.784,0.981 2.505,1.071 0.164,0.021 0.309,0.039 0.428,0.062 2.21,0.216 9.591,0.289 9.767,0.291 0.16,0 6.153,-0.015 10.113,-0.31 l 0.174,-0.019 c 0.575,-0.058 1.537,-0.154 2.402,-1.088 0.627,-0.653 0.952,-2.164 1.025,-2.691 C 29.717,21.876 30,19.484 30,17.128 V 14.862 C 30,12.506 29.717,10.113 29.714,10.089 29.642,9.569 29.315,8.057 28.696,7.412 27.825,6.472 26.863,6.376 26.288,6.319 L 26.091,6.298 C 22.122,6.003 16.066,6 16.006,6 Z"
         fill="#455a64"
         id="path3122" /><polygon
         fill="#ffffff"
         points="12.5,11.5 21.5,15.5 12.5,19.5 "
         id="polygon3124" /><path
         d="M 12.5,20 C 12.405,20 12.31,19.973 12.228,19.919 12.085,19.827 12,19.669 12,19.5 v -5.969 c 0,-0.276 0.224,-0.5 0.5,-0.5 0.276,0 0.5,0.224 0.5,0.5 v 5.199 l 7.269,-3.23 -7.972,-3.543 c -0.252,-0.112 -0.366,-0.408 -0.254,-0.66 0.112,-0.252 0.408,-0.366 0.66,-0.254 l 9,4 C 21.884,15.124 22,15.302 22,15.5 c 0,0.198 -0.116,0.376 -0.297,0.457 l -9,4 C 12.638,19.986 12.569,20 12.5,20 Z"
         fill="#455a64"
         id="path3126" /></g><g
       id="g3284"
       transform="matrix(0.35344366,-0.44581346,0.42918816,0.34026302,6.6997093,60.711289)"
       inkscape:spray-origin="#Youtube_1_"><path
         d="m 30.21,10.03 c 0,0 -0.284,-2.058 -1.153,-2.964 C 27.954,5.877 26.718,5.871 26.152,5.802 22.093,5.5 16.006,5.5 16.006,5.5 h -0.012 c 0,0 -6.087,0 -10.146,0.302 C 5.281,5.871 4.045,5.876 2.942,7.066 2.072,7.972 1.79,10.03 1.79,10.03 c 0,0 -0.29,2.416 -0.29,4.832 v 2.266 c 0,2.416 0.29,4.832 0.29,4.832 0,0 0.283,2.058 1.152,2.963 1.104,1.189 2.553,1.153 3.198,1.277 2.32,0.229 9.86,0.3 9.86,0.3 0,0 6.093,-0.009 10.152,-0.312 0.566,-0.07 1.803,-0.076 2.905,-1.266 0.87,-0.905 1.153,-2.963 1.153,-2.963 0,0 0.29,-2.416 0.29,-4.832 v -2.266 c 0,-2.415 -0.29,-4.831 -0.29,-4.831 z"
         fill="#ffffff"
         id="path3274" /><path
         d="M 29.755,8.282 C 28.736,7.385 27.667,7.365 27.151,7.302 23.093,7 17.006,7 17.006,7 h -0.012 c 0,0 -6.087,0 -10.146,0.302 C 6.281,7.371 5.045,7.376 3.942,8.566 3.072,9.472 2.79,11.53 2.79,11.53 c 0,0 -0.29,2.416 -0.29,4.832 v 2.266 c 0,2.416 0.29,4.832 0.29,4.832 0,0 0.124,0.875 0.449,1.734 1.054,0.902 2.311,0.892 2.901,1.006 2.32,0.229 9.86,0.3 9.86,0.3 0,0 6.093,-0.009 10.152,-0.312 0.566,-0.07 1.803,-0.076 2.905,-1.266 0.87,-0.905 1.153,-2.963 1.153,-2.963 0,0 0.29,-2.416 0.29,-4.832 v -2.266 c 0,-2.416 -0.29,-4.833 -0.29,-4.833 0,0 -0.126,-0.881 -0.455,-1.746 z"
         fill="#ff8a80"
         id="path3276" /><path
         d="m 16,27 c -10e-4,0 -0.003,0 -0.005,0 C 15.686,26.997 8.407,26.926 6.091,26.698 5.945,26.672 5.822,26.657 5.684,26.64 4.91,26.544 3.615,26.384 2.575,25.263 1.61,24.259 1.306,22.119 1.294,22.028 1.281,21.919 1,19.545 1,17.128 V 14.862 C 1,12.444 1.281,10.07 1.293,9.97 1.307,9.871 1.61,7.731 2.581,6.72 3.699,5.515 4.944,5.391 5.613,5.324 L 5.788,5.305 C 9.841,5.003 15.933,5 15.994,5 c 0.073,0 6.165,0.003 10.195,0.303 l 0.198,0.021 c 0.669,0.066 1.914,0.19 3.037,1.402 0.965,1.005 1.27,3.145 1.282,3.235 C 30.719,10.07 31,12.444 31,14.862 v 2.266 c 0,2.418 -0.281,4.792 -0.293,4.892 -0.014,0.099 -0.318,2.239 -1.29,3.25 -1.116,1.205 -2.36,1.33 -3.029,1.397 l -0.176,0.019 C 22.159,26.988 16.062,27 16,27 Z M 16.006,6 C 15.934,6 9.878,6.003 5.885,6.3 L 5.712,6.319 C 5.137,6.376 4.175,6.472 3.309,7.406 2.682,8.06 2.357,9.57 2.285,10.098 2.283,10.113 2,12.506 2,14.862 v 2.266 c 0,2.358 0.283,4.749 0.286,4.772 0.072,0.52 0.398,2.032 1.016,2.676 0.797,0.859 1.784,0.981 2.505,1.071 0.164,0.021 0.309,0.039 0.428,0.062 2.21,0.216 9.591,0.289 9.767,0.291 0.16,0 6.153,-0.015 10.113,-0.31 l 0.174,-0.019 c 0.575,-0.058 1.537,-0.154 2.402,-1.088 0.627,-0.653 0.952,-2.164 1.025,-2.691 C 29.717,21.876 30,19.484 30,17.128 V 14.862 C 30,12.506 29.717,10.113 29.714,10.089 29.642,9.569 29.315,8.057 28.696,7.412 27.825,6.472 26.863,6.376 26.288,6.319 L 26.091,6.298 C 22.122,6.003 16.066,6 16.006,6 Z"
         fill="#455a64"
         id="path3278" /><polygon
         fill="#ffffff"
         points="12.5,11.5 21.5,15.5 12.5,19.5 "
         id="polygon3280" /><path
         d="M 12.5,20 C 12.405,20 12.31,19.973 12.228,19.919 12.085,19.827 12,19.669 12,19.5 v -5.969 c 0,-0.276 0.224,-0.5 0.5,-0.5 0.276,0 0.5,0.224 0.5,0.5 v 5.199 l 7.269,-3.23 -7.972,-3.543 c -0.252,-0.112 -0.366,-0.408 -0.254,-0.66 0.112,-0.252 0.408,-0.366 0.66,-0.254 l 9,4 C 21.884,15.124 22,15.302 22,15.5 c 0,0.198 -0.116,0.376 -0.297,0.457 l -9,4 C 12.638,19.986 12.569,20 12.5,20 Z"
         fill="#455a64"
         id="path3282" /></g><g
       id="interface-solid-multimedia-refresh-button-1"
       transform="matrix(0.48650396,0,0,0.48650396,132.93129,44.0135)"
       style="fill:#e4e4e4;fill-opacity:1;stroke:#e4e4e4;stroke-opacity:1"><path
         d="M 3.2312,10.5 H 9.25 A 1.25,1.25 0 0 0 9.25,8 H 5.36743 A 13.20678,13.20678 0 0 1 16.415,2.5 12.75654,12.75654 0 0 1 28.10445,10.15039 1.25027,1.25027 0 0 0 30.39545,9.14844 15.25661,15.25661 0 0 0 16.415,0 15.47292,15.47292 0 0 0 2.5,7.93555 V 1.25 a 1.25,1.25 0 0 0 -2.5,0 v 8 a 1.25085,1.25085 0 0 0 1.25,1.25 z"
         id="path3393"
         style="fill:#e4e4e4;fill-opacity:1;stroke:#e4e4e4;stroke-opacity:1" /><path
         d="m 29.25,20 h -8 a 1.25,1.25 0 0 0 0,2.5 h 3.94965 A 11.00927,11.00927 0 0 1 15.25,28 12.75654,12.75654 0 0 1 3.56055,20.34961 1.25027,1.25027 0 0 0 1.26955,21.35161 15.25661,15.25661 0 0 0 15.25,30.5 13.625,13.625 0 0 0 28,22.58423 V 29.25 a 1.25,1.25 0 0 0 2.5,0 v -8 A 1.25022,1.25022 0 0 0 29.25,20 Z"
         id="path3395"
         style="fill:#e4e4e4;fill-opacity:1;stroke:#e4e4e4;stroke-opacity:1" /></g><g
       id="interface-solid-multimedia-refresh-button-1-3"
       transform="matrix(0.48650396,0,0,0.48650396,64.430707,26.136618)"
       style="fill:#e4e4e4;fill-opacity:1;stroke:#e4e4e4;stroke-opacity:1"><path
         d="M 3.2312,10.5 H 9.25 A 1.25,1.25 0 0 0 9.25,8 H 5.36743 A 13.20678,13.20678 0 0 1 16.415,2.5 12.75654,12.75654 0 0 1 28.10445,10.15039 1.25027,1.25027 0 0 0 30.39545,9.14844 15.25661,15.25661 0 0 0 16.415,0 15.47292,15.47292 0 0 0 2.5,7.93555 V 1.25 a 1.25,1.25 0 0 0 -2.5,0 v 8 a 1.25085,1.25085 0 0 0 1.25,1.25 z"
         id="path3393-6"
         style="fill:#e4e4e4;fill-opacity:1;stroke:#e4e4e4;stroke-opacity:1" /><path
         d="m 29.25,20 h -8 a 1.25,1.25 0 0 0 0,2.5 h 3.94965 A 11.00927,11.00927 0 0 1 15.25,28 12.75654,12.75654 0 0 1 3.56055,20.34961 1.25027,1.25027 0 0 0 1.26955,21.35161 15.25661,15.25661 0 0 0 15.25,30.5 13.625,13.625 0 0 0 28,22.58423 V 29.25 a 1.25,1.25 0 0 0 2.5,0 v -8 A 1.25022,1.25022 0 0 0 29.25,20 Z"
         id="path3395-7"
         style="fill:#e4e4e4;fill-opacity:1;stroke:#e4e4e4;stroke-opacity:1" /></g><g
       id="interface-solid-multimedia-refresh-button-1-5"
       transform="matrix(0.13908552,0.4661988,-0.4661988,0.13908552,147.86348,6.6444104)"
       style="fill:#e4e4e4;fill-opacity:1;stroke:#e4e4e4;stroke-opacity:1"><path
         d="M 3.2312,10.5 H 9.25 A 1.25,1.25 0 0 0 9.25,8 H 5.36743 A 13.20678,13.20678 0 0 1 16.415,2.5 12.75654,12.75654 0 0 1 28.10445,10.15039 1.25027,1.25027 0 0 0 30.39545,9.14844 15.25661,15.25661 0 0 0 16.415,0 15.47292,15.47292 0 0 0 2.5,7.93555 V 1.25 a 1.25,1.25 0 0 0 -2.5,0 v 8 a 1.25085,1.25085 0 0 0 1.25,1.25 z"
         id="path3393-3"
         style="fill:#e4e4e4;fill-opacity:1;stroke:#e4e4e4;stroke-opacity:1" /><path
         d="m 29.25,20 h -8 a 1.25,1.25 0 0 0 0,2.5 h 3.94965 A 11.00927,11.00927 0 0 1 15.25,28 12.75654,12.75654 0 0 1 3.56055,20.34961 1.25027,1.25027 0 0 0 1.26955,21.35161 15.25661,15.25661 0 0 0 15.25,30.5 13.625,13.625 0 0 0 28,22.58423 V 29.25 a 1.25,1.25 0 0 0 2.5,0 v -8 A 1.25022,1.25022 0 0 0 29.25,20 Z"
         id="path3395-5"
         style="fill:#e4e4e4;fill-opacity:1;stroke:#e4e4e4;stroke-opacity:1" /></g><g
       id="interface-solid-multimedia-refresh-button-1-6"
       transform="matrix(0.10172004,0.47575113,-0.47575113,0.10172004,46.808922,70.708637)"
       style="fill:#e4e4e4;fill-opacity:1;stroke:#e4e4e4;stroke-opacity:1"><path
         d="M 3.2312,10.5 H 9.25 A 1.25,1.25 0 0 0 9.25,8 H 5.36743 A 13.20678,13.20678 0 0 1 16.415,2.5 12.75654,12.75654 0 0 1 28.10445,10.15039 1.25027,1.25027 0 0 0 30.39545,9.14844 15.25661,15.25661 0 0 0 16.415,0 15.47292,15.47292 0 0 0 2.5,7.93555 V 1.25 a 1.25,1.25 0 0 0 -2.5,0 v 8 a 1.25085,1.25085 0 0 0 1.25,1.25 z"
         id="path3393-2"
         style="fill:#e4e4e4;fill-opacity:1;stroke:#e4e4e4;stroke-opacity:1" /><path
         d="m 29.25,20 h -8 a 1.25,1.25 0 0 0 0,2.5 h 3.94965 A 11.00927,11.00927 0 0 1 15.25,28 12.75654,12.75654 0 0 1 3.56055,20.34961 1.25027,1.25027 0 0 0 1.26955,21.35161 15.25661,15.25661 0 0 0 15.25,30.5 13.625,13.625 0 0 0 28,22.58423 V 29.25 a 1.25,1.25 0 0 0 2.5,0 v -8 A 1.25022,1.25022 0 0 0 29.25,20 Z"
         id="path3395-9"
         style="fill:#e4e4e4;fill-opacity:1;stroke:#e4e4e4;stroke-opacity:1" /></g><g
       id="interface-solid-multimedia-refresh-button-1-1"
       transform="matrix(0.32215206,0.36456022,-0.36456022,0.32215206,15.090001,-0.24657345)"
       style="fill:#e4e4e4;fill-opacity:1;stroke:#e4e4e4;stroke-opacity:1"><path
         d="M 3.2312,10.5 H 9.25 A 1.25,1.25 0 0 0 9.25,8 H 5.36743 A 13.20678,13.20678 0 0 1 16.415,2.5 12.75654,12.75654 0 0 1 28.10445,10.15039 1.25027,1.25027 0 0 0 30.39545,9.14844 15.25661,15.25661 0 0 0 16.415,0 15.47292,15.47292 0 0 0 2.5,7.93555 V 1.25 a 1.25,1.25 0 0 0 -2.5,0 v 8 a 1.25085,1.25085 0 0 0 1.25,1.25 z"
         id="path3393-27"
         style="fill:#e4e4e4;fill-opacity:1;stroke:#e4e4e4;stroke-opacity:1" /><path
         d="m 29.25,20 h -8 a 1.25,1.25 0 0 0 0,2.5 h 3.94965 A 11.00927,11.00927 0 0 1 15.25,28 12.75654,12.75654 0 0 1 3.56055,20.34961 1.25027,1.25027 0 0 0 1.26955,21.35161 15.25661,15.25661 0 0 0 15.25,30.5 13.625,13.625 0 0 0 28,22.58423 V 29.25 a 1.25,1.25 0 0 0 2.5,0 v -8 A 1.25022,1.25022 0 0 0 29.25,20 Z"
         id="path3395-0"
         style="fill:#e4e4e4;fill-opacity:1;stroke:#e4e4e4;stroke-opacity:1" /></g><g
       id="interface-solid-multimedia-refresh-button-1-9"
       transform="matrix(0.44099024,-0.20545976,0.20545976,0.44099024,78.991845,80.735342)"
       style="fill:#e4e4e4;fill-opacity:1;stroke:#e4e4e4;stroke-opacity:1"><path
         d="M 3.2312,10.5 H 9.25 A 1.25,1.25 0 0 0 9.25,8 H 5.36743 A 13.20678,13.20678 0 0 1 16.415,2.5 12.75654,12.75654 0 0 1 28.10445,10.15039 1.25027,1.25027 0 0 0 30.39545,9.14844 15.25661,15.25661 0 0 0 16.415,0 15.47292,15.47292 0 0 0 2.5,7.93555 V 1.25 a 1.25,1.25 0 0 0 -2.5,0 v 8 a 1.25085,1.25085 0 0 0 1.25,1.25 z"
         id="path3393-36"
         style="fill:#e4e4e4;fill-opacity:1;stroke:#e4e4e4;stroke-opacity:1" /><path
         d="m 29.25,20 h -8 a 1.25,1.25 0 0 0 0,2.5 h 3.94965 A 11.00927,11.00927 0 0 1 15.25,28 12.75654,12.75654 0 0 1 3.56055,20.34961 1.25027,1.25027 0 0 0 1.26955,21.35161 15.25661,15.25661 0 0 0 15.25,30.5 13.625,13.625 0 0 0 28,22.58423 V 29.25 a 1.25,1.25 0 0 0 2.5,0 v -8 A 1.25022,1.25022 0 0 0 29.25,20 Z"
         id="path3395-06"
         style="fill:#e4e4e4;fill-opacity:1;stroke:#e4e4e4;stroke-opacity:1" /></g><path
       d="m 52.45374,63.004306 a 0.92984227,0.92984227 0 0 1 -0.894402,0.382685 L 41.279065,61.840424 a 0.92984227,0.92984227 0 0 1 -0.401084,-0.157071 0.92984227,0.92984227 0 0 1 -0.32285,-0.397607 0.92984227,0.92984227 0 0 1 0.09723,-0.897895 l 5.349359,-7.605591 a 0.92984227,0.92984227 0 0 1 1.578901,0.09876 l 4.930916,9.152155 a 0.92984227,0.92984227 0 0 1 -0.05779,0.971112 z"
       fill="#464646"
       id="path4843"
       style="fill:#e4e4e4;fill-opacity:1;stroke-width:0.929841;stroke:#e4e4e4;stroke-opacity:1" /><path
       d="m 85.614204,107.79441 a 0.92984227,0.92984227 0 0 1 0.85201,0.46955 l 5.10661,9.0553 a 0.92984227,0.92984227 0 0 1 0.12297,0.41281 0.92984227,0.92984227 0 0 1 -0.11475,0.49916 0.92984227,0.92984227 0 0 1 -0.76763,0.47585 l -9.28687,0.46316 a 0.92984227,0.92984227 0 0 1 -0.89369,-1.30537 l 4.18027,-9.51847 a 0.92984227,0.92984227 0 0 1 0.80106,-0.55199 z"
       fill="#464646"
       id="path4843-2"
       style="fill:#e4e4e4;fill-opacity:1;stroke:#e4e4e4;stroke-width:0.929841;stroke-opacity:1" /><path
       d="m 177.79145,59.87601 a 0.92984227,0.92984227 0 0 1 -0.51142,0.827563 l -9.29842,4.649209 a 0.92984227,0.92984227 0 0 1 -0.41843,0.102268 0.92984227,0.92984227 0 0 1 -0.49281,-0.139486 0.92984227,0.92984227 0 0 1 -0.43703,-0.790366 v -9.298422 a 0.92984227,0.92984227 0 0 1 1.34827,-0.827559 l 9.29842,4.649209 a 0.92984227,0.92984227 0 0 1 0.51142,0.827559 z"
       fill="#464646"
       id="path4843-6"
       style="fill:#e4e4e4;fill-opacity:1;stroke:#e4e4e4;stroke-width:0.929841;stroke-opacity:1" /><path
       d="m 60.161083,13.975797 a 0.92984227,0.92984227 0 0 1 -0.83284,0.502773 L 48.93286,14.36948 A 0.92984227,0.92984227 0 0 1 48.513899,14.269423 0.92984227,0.92984227 0 0 1 48.139134,13.920318 0.92984227,0.92984227 0 0 1 48.11118,13.017607 L 52.3566,4.7449373 A 0.92984227,0.92984227 0 0 1 53.933977,4.6242547 L 60.08394,13.00601 a 0.92984227,0.92984227 0 0 1 0.07716,0.969765 z"
       fill="#464646"
       id="path4843-1"
       style="fill:#e4e4e4;fill-opacity:1;stroke:#e4e4e4;stroke-width:0.929841;stroke-opacity:1" /><path
       d="m 105.15425,50.695237 a 0.92984227,0.92984227 0 0 1 -0.74967,0.620004 l -10.297977,1.4239 a 0.92984227,0.92984227 0 0 1 -0.429132,-0.03723 0.92984227,0.92984227 0 0 1 -0.422116,-0.290072 0.92984227,0.92984227 0 0 1 -0.160667,-0.888738 l 2.98007,-8.807942 a 0.92984227,0.92984227 0 0 1 1.542374,-0.351797 l 7.317908,7.384038 a 0.92984227,0.92984227 0 0 1 0.21922,0.947812 z"
       fill="#464646"
       id="path4843-8"
       style="fill:#e4e4e4;fill-opacity:1;stroke:#e4e4e4;stroke-width:0.929841;stroke-opacity:1" /><path
       d="M 9.0601015,93.369369 A 0.92984227,0.92984227 0 0 1 8.8254759,92.425252 l 3.1717591,-9.900293 a 0.92984227,0.92984227 0 0 1 0.21923,-0.370781 0.92984227,0.92984227 0 0 1 0.444149,-0.255061 0.92984227,0.92984227 0 0 1 0.870763,0.239669 l 6.651532,6.49752 a 0.92984227,0.92984227 0 0 1 -0.350153,1.542749 L 10.009469,93.58183 A 0.92984227,0.92984227 0 0 1 9.0601191,93.369386 Z"
       fill="#464646"
       id="path4843-7"
       style="fill:#e4e4e4;fill-opacity:1;stroke-width:0.929841;stroke:#e4e4e4;stroke-opacity:1" /><path
       style="color:#000000;fill:#e4e4e4;fill-opacity:1;stroke:#e4e4e4;stroke-linecap:round;stroke-linejoin:round;stroke-opacity:1;-inkscape-stroke:none;paint-order:stroke fill markers"
       d="m 150.82483,84.908255 c 0.71558,4.885993 4.94329,8.662003 10.02161,8.662003 5.07832,0 9.30603,-3.77601 10.02161,-8.662003 h -2.97708 c -0.67326,3.278755 -3.55858,5.724715 -7.04453,5.724715 -3.48595,0 -6.37179,-2.445955 -7.04505,-5.724715 z"
       id="path6194-5" /><path
       style="color:#000000;fill:#e4e4e4;stroke-linecap:round;stroke-linejoin:round;-inkscape-stroke:none;paint-order:stroke fill markers;stroke:#e4e4e4;stroke-opacity:1;fill-opacity:1"
       d="m 112.67475,24.890815 c -1.60621,4.669589 0.41746,9.964544 4.92958,12.294806 4.51211,2.330262 10.00114,0.915201 12.87895,-3.09768 l -2.64516,-1.366077 c -2.1027,2.604259 -5.78869,3.453538 -8.88598,1.853959 -3.09728,-1.59958 -4.53901,-5.097036 -3.6327,-8.31917 z"
       id="path6194-2" /><path
       style="color:#000000;fill:#e4e4e4;stroke-linecap:round;stroke-linejoin:round;-inkscape-stroke:none;paint-order:stroke fill markers;stroke:#e4e4e4;stroke-opacity:1;fill-opacity:1"
       d="m 40.983735,110.68804 c 2.213196,4.41437 7.412547,6.67236 12.234163,5.0782 4.821615,-1.59416 7.650269,-6.50644 6.795892,-11.37008 l -2.826592,0.93455 c 0.390023,3.32436 -1.581622,6.55243 -4.891361,7.64672 -3.309739,1.09429 -6.817523,-0.32211 -8.486004,-3.22378 z"
       id="path6194-28" /><path
       style="color:#000000;fill:#e4e4e4;stroke-linecap:round;stroke-linejoin:round;-inkscape-stroke:none;paint-order:stroke fill markers;stroke:#e4e4e4;stroke-opacity:1;fill-opacity:1"
       d="m 113.28669,109.26887 c -2.19215,4.42486 -0.8647,9.93574 3.31109,12.82575 4.17578,2.89001 9.80101,2.19102 13.16998,-1.41939 l -2.44798,-1.69422 c -2.41951,2.3129 -6.18401,2.68216 -9.05043,0.69834 -2.86641,-1.98381 -3.8474,-5.63736 -2.5351,-8.71655 z"
       id="path6194-3" /><path
       style="color:#000000;fill:#e4e4e4;stroke-linecap:round;stroke-linejoin:round;-inkscape-stroke:none;paint-order:stroke fill markers;stroke:#e4e4e4;stroke-opacity:1;fill-opacity:1"
       d="m 69.164278,54.543828 c -4.323149,2.665826 -5.940697,8.098699 -3.984204,12.633271 l 2.533592,-1.562314 c -1.148871,-3.144341 0.02452,-6.740732 2.992312,-8.570793 2.967788,-1.830056 6.707676,-1.263381 9.001357,1.17502 l 2.534032,-1.562585 C 79.068126,52.87215 73.487426,51.878003 69.164278,54.543828 Z"
       id="path5829-2" /><path
       style="color:#000000;fill:#e4e4e4;fill-opacity:1;stroke:#e4e4e4;stroke-linecap:round;stroke-linejoin:round;stroke-opacity:1;-inkscape-stroke:none;paint-order:stroke fill markers"
       d="m 27.941575,24.814182 c -2.033666,4.499908 -0.511373,9.960165 3.764389,12.700091 4.275761,2.739926 9.872624,1.841655 13.111277,-1.886093 l -2.506593,-1.606236 c -2.335861,2.397347 -6.084874,2.900027 -9.019918,1.019239 -2.935043,-1.880789 -4.04514,-5.497203 -2.842999,-8.621046 z"
       id="path6194-0" /></g><metadata
     id="metadata132"><rdf:RDF><cc:Work
         rdf:about=""><cc:license
           rdf:resource="http://creativecommons.org/licenses/by-sa/4.0/" /><dc:title>YouBird - Youtube video downloader</dc:title><dc:creator><cc:Agent><dc:title>Almodhesh Plus</dc:title></cc:Agent></dc:creator><dc:rights><cc:Agent><dc:title>@joeplus</dc:title></cc:Agent></dc:rights><dc:publisher><cc:Agent><dc:title>Almodhesh Plus</dc:title></cc:Agent></dc:publisher></cc:Work><cc:License
         rdf:about="http://creativecommons.org/licenses/by-sa/4.0/"><cc:permits
           rdf:resource="http://creativecommons.org/ns#Reproduction" /><cc:permits
           rdf:resource="http://creativecommons.org/ns#Distribution" /><cc:requires
           rdf:resource="http://creativecommons.org/ns#Notice" /><cc:requires
           rdf:resource="http://creativecommons.org/ns#Attribution" /><cc:permits
           rdf:resource="http://creativecommons.org/ns#DerivativeWorks" /><cc:requires
           rdf:resource="http://creativecommons.org/ns#ShareAlike" /></cc:License></rdf:RDF></metadata></svg>
